<?xml version="1.0" standalone="no"?>
<!DOCTYPE svg PUBLIC "-//W3C//DTD SVG 20010904//EN"
 "http://www.w3.org/TR/2001/REC-SVG-20010904/DTD/svg10.dtd">
<svg version="1.0" xmlns="http://www.w3.org/2000/svg"
 width="19.000000pt" height="21.000000pt" viewBox="0 0 19.000000 21.000000"
 preserveAspectRatio="xMidYMid meet">

<g transform="translate(0.000000,21.000000) scale(0.100000,-0.100000)"
fill="#000000" stroke="none">
<path d="M0 196 c0 -8 7 -17 16 -20 8 -3 12 -10 9 -16 -3 -5 -1 -10 4 -10 6 0
11 9 11 20 0 17 7 20 40 20 22 0 40 5 40 10 0 6 -27 10 -60 10 -45 0 -60 -4
-60 -14z"/>
<path d="M172 185 c-1 -13 3 -27 8 -30 6 -3 10 5 10 19 0 32 -15 42 -18 11z"/>
<path d="M57 158 c-14 -51 11 -96 34 -64 9 12 31 -3 23 -15 -3 -6 -13 -9 -22
-8 -38 3 -45 0 -32 -16 17 -20 33 -19 53 3 29 32 22 52 -18 52 -47 0 -45 20 3
22 36 1 36 1 5 5 -23 3 -33 10 -35 26 -3 20 -4 19 -11 -5z"/>
<path d="M160 106 c0 -8 5 -18 10 -21 6 -3 10 3 10 14 0 12 -4 21 -10 21 -5 0
-10 -6 -10 -14z"/>
</g>
</svg>
